<svg width="22" height="22" viewBox="0 0 22 22" fill="none" xmlns="http://www.w3.org/2000/svg">
<path d="M11.1089 11.7151C11.0447 11.7059 10.9622 11.7059 10.8889 11.7151C9.27552 11.6601 7.99219 10.3401 7.99219 8.7176C7.99219 7.05844 9.33052 5.71094 10.9989 5.71094C12.658 5.71094 14.0055 7.05844 14.0055 8.7176C13.9964 10.3401 12.7222 11.6601 11.1089 11.7151Z" stroke="white" stroke-width="1.3" stroke-linecap="round" stroke-linejoin="round"/>
<path d="M17.177 17.7649C15.5453 19.2591 13.382 20.1666 10.9986 20.1666C8.61531 20.1666 6.45198 19.2591 4.82031 17.7649C4.91198 16.9033 5.46198 16.0599 6.44281 15.3999C8.95448 13.7316 13.0611 13.7316 15.5545 15.3999C16.5353 16.0599 17.0853 16.9033 17.177 17.7649Z" stroke="white" stroke-width="1.3" stroke-linecap="round" stroke-linejoin="round"/>
<path d="M10.9987 20.1666C16.0613 20.1666 20.1654 16.0625 20.1654 10.9999C20.1654 5.93731 16.0613 1.83325 10.9987 1.83325C5.93609 1.83325 1.83203 5.93731 1.83203 10.9999C1.83203 16.0625 5.93609 20.1666 10.9987 20.1666Z" stroke="white" stroke-width="1.3" stroke-linecap="round" stroke-linejoin="round"/>
</svg>
