<svg width="22" height="22" viewBox="0 0 22 22" fill="none" xmlns="http://www.w3.org/2000/svg">
<path d="M2.75781 10.2849V14.4007C2.75781 18.5166 4.40781 20.1666 8.52365 20.1666H13.4645C17.5803 20.1666 19.2303 18.5166 19.2303 14.4007V10.2849" stroke="white" stroke-width="1.3" stroke-linecap="round" stroke-linejoin="round"/>
<path d="M10.9991 10.9999C12.6766 10.9999 13.9141 9.63409 13.7491 7.95659L13.1441 1.83325H8.8633L8.24914 7.95659C8.08414 9.63409 9.32164 10.9999 10.9991 10.9999Z" stroke="white" stroke-width="1.3" stroke-linecap="round" stroke-linejoin="round"/>
<path d="M16.7852 10.9999C18.6369 10.9999 19.9935 9.49659 19.8102 7.65409L19.5535 5.13325C19.2235 2.74992 18.3069 1.83325 15.9052 1.83325H13.1094L13.751 8.25909C13.9069 9.77159 15.2727 10.9999 16.7852 10.9999Z" stroke="white" stroke-width="1.3" stroke-linecap="round" stroke-linejoin="round"/>
<path d="M5.1705 10.9999C6.683 10.9999 8.04884 9.77159 8.1955 8.25909L8.39717 6.23325L8.83717 1.83325H6.04134C3.63967 1.83325 2.723 2.74992 2.393 5.13325L2.1455 7.65409C1.96217 9.49659 3.31884 10.9999 5.1705 10.9999Z" stroke="white" stroke-width="1.3" stroke-linecap="round" stroke-linejoin="round"/>
<path d="M10.9987 15.5833C9.46786 15.5833 8.70703 16.3441 8.70703 17.8749V20.1666H13.2904V17.8749C13.2904 16.3441 12.5295 15.5833 10.9987 15.5833Z" stroke="white" stroke-width="1.3" stroke-linecap="round" stroke-linejoin="round"/>
</svg>
