<svg width="102" height="32" viewBox="0 0 102 32" fill="none" xmlns="http://www.w3.org/2000/svg">
<g clip-path="url(#clip0_14701_327)">
<path d="M45.117 0.544179C43.6374 -0.361042 41.9802 1.42332 42.8014 2.87987C45.461 7.59597 48.1318 11.5037 47.3734 17.2517C47.0035 19.8816 45.9937 23.4616 43.0011 23.957C42.5198 24.0581 42.0221 24.049 41.5447 23.9303C41.0674 23.8116 40.6226 23.5864 40.2434 23.2713C39.8641 22.9562 39.56 22.5593 39.3535 22.1099C39.147 21.6606 39.0435 21.1702 39.0505 20.6751C39.6457 19.6904 40.1556 18.656 40.5745 17.5832C41.3476 15.5902 38.4956 14.197 37.1418 15.5716C36.1388 16.5998 35.4417 17.8902 35.1295 19.2968C33.7889 21.2773 31.9982 22.9069 29.9063 24.0501C27.5019 25.38 21.7905 27.3507 19.6635 24.5605C19.365 24.1393 19.1575 23.6599 19.0543 23.153C18.951 22.6461 18.9545 22.1231 19.0643 21.6176C24.0174 20.5745 33.2577 18.332 28.9594 13.1353C24.5648 7.8232 17.5514 15.743 15.9904 19.8407C15.0323 22.3514 15.1174 25.5067 17.015 27.5779C19.2345 29.9806 22.8781 30.0961 25.8706 29.6565C29.6573 29.0887 33.1708 27.3359 35.9137 24.6462C36.201 25.1402 36.549 25.5958 36.9494 26.0021C39.8643 28.9525 44.8988 28.7774 47.8506 26.0021C54.3536 19.9152 52.5744 5.14107 45.117 0.544179ZM23.8028 14.8564L25.386 14.3237C26.55 15.9007 26.5833 16.9251 25.4859 17.3969C24.8645 17.9967 23.6586 18.1755 22.8411 18.4698C21.8164 18.8423 20.7844 19.1962 19.7486 19.5389C20.7215 17.505 22.4416 15.6238 23.8028 14.8564Z" fill="white"/>
<path d="M100.743 25.7712C96.5371 23.5361 91.399 26.7621 87.0341 26.9893C84.6889 27.1197 82.2475 26.5833 81.0305 24.3631C79.7099 21.9193 80.7716 19.3415 82.88 17.9185C82.954 17.8738 83.028 17.8291 83.0983 17.7807C83.1686 17.7322 83.2166 17.7024 83.2795 17.6689C83.4349 17.5571 83.594 17.4528 83.7419 17.3299C85.7394 15.6573 83.1834 12.5803 81.0342 13.7947C80.6755 13.9943 80.3284 14.2144 79.9947 14.4541C78.8591 14.8266 77.5422 13.9512 77.2537 12.8187C76.7358 10.7773 73.3549 10.5836 72.9628 12.8187C72.6536 14.7466 71.9083 16.5771 70.7846 18.1687C69.6608 19.7603 68.1887 21.0704 66.482 21.9976C64.6953 22.9512 62.413 23.6404 60.3822 23.2716C58.2182 22.8991 57.5782 21.7107 57.7225 20.1387C63.0677 18.4847 69.7557 17.0617 67.9875 10.3116C67.8234 9.6658 67.532 9.05978 67.1307 8.5296C66.7294 7.99942 66.2264 7.5559 65.6515 7.22542C65.0766 6.89493 64.4415 6.68422 63.7842 6.60581C63.1268 6.5274 62.4605 6.58289 61.8248 6.76899C58.2034 7.74871 56.8717 11.4106 55.6362 14.5472C55.1405 15.8137 54.5265 17.1548 54.127 18.5145C53.294 18.9995 52.5466 19.6201 51.9149 20.351C51.1751 21.219 52.1517 22.8022 53.2133 22.0497C53.3576 21.9491 53.5055 21.8523 53.6646 21.7592C53.7335 22.8186 54.1076 23.8348 54.741 24.6834C56.5906 27.1905 59.9198 27.8908 62.8495 27.5928C68.5867 27.0117 73.5694 23.1635 75.959 18.0302C76.2423 18.189 76.5366 18.3272 76.8394 18.4437C75.996 20.3402 75.8117 22.4675 76.3164 24.4823C76.8211 26.4972 77.9853 28.2819 79.6211 29.5485C82.2475 31.5899 85.6026 31.9625 88.7801 31.5899C90.6354 31.3367 92.4709 30.9533 94.2732 30.4426C96.3521 29.8987 98.8342 29.556 100.724 28.5465C100.966 28.406 101.166 28.2046 101.306 27.9622C101.446 27.7197 101.521 27.4446 101.522 27.1641C101.524 26.8837 101.453 26.6076 101.317 26.3633C101.18 26.1189 100.982 25.9148 100.743 25.7712ZM61.4438 11.0679C62.7237 9.87579 64.9468 10.5091 64.6065 12.476C64.3624 13.8766 63.2231 14.6664 62.0689 15.2959C60.9949 15.8532 59.8732 16.312 58.7176 16.6668C59.3575 14.7111 60.0529 12.353 61.4438 11.0679Z" fill="white"/>
<path d="M89.1312 21.4946C89.919 21.4467 90.6856 21.2186 91.3729 20.8278C91.965 20.7827 92.5362 20.5879 93.0338 20.2616C93.3891 20.0439 93.6466 19.6959 93.7522 19.2908C93.8578 18.8857 93.8031 18.4551 93.5997 18.0898C93.5243 17.9752 93.4415 17.8657 93.3519 17.762C93.2146 17.3182 92.9446 16.9279 92.5788 16.6444C91.0067 15.3667 88.2176 16.2011 87.9882 18.3059C87.6804 18.7892 87.5412 19.3619 87.5924 19.9338C87.6738 20.731 88.2361 21.5617 89.1312 21.4946Z" fill="white"/>
<path d="M11.3138 14.793C11.2805 14.7483 11.2435 14.7074 11.2066 14.6627C11.1523 14.4747 11.0672 14.2972 10.955 14.1374V14.156C10.7168 13.8196 10.3768 13.57 9.98585 13.4445C9.76101 13.3816 9.52588 13.365 9.29452 13.3957C9.06316 13.4265 8.84034 13.5039 8.63938 13.6233C8.26185 13.8723 7.97897 14.2425 7.83668 14.6738C7.31511 16.0112 8.50252 17.4379 9.8083 17.5571C10.0239 17.7159 10.2876 17.7941 10.5541 17.7785C10.8207 17.7628 11.0736 17.6543 11.2694 17.4715C11.4748 17.2688 11.6218 17.0139 11.6947 16.7338C11.7677 16.4537 11.7639 16.1589 11.6837 15.8808C11.6853 15.4867 11.5549 15.1035 11.3138 14.793Z" fill="white"/>
<path d="M2.40026 9.08234C2.06814 9.0903 1.74326 9.1817 1.45514 9.34824C1.16702 9.51479 0.924792 9.7512 0.75046 10.036C0.546975 10.4054 0.466283 10.8308 0.520199 11.2497C0.574116 11.6687 0.759809 12.0592 1.05009 12.3642C1.21678 12.5608 1.4238 12.7186 1.65688 12.8268C1.88997 12.935 2.14359 12.9911 2.40026 12.9911C2.65692 12.9911 2.91054 12.935 3.14363 12.8268C3.37671 12.7186 3.58374 12.5608 3.75042 12.3642C4.01182 12.0905 4.18845 11.7461 4.25873 11.373C4.32902 10.9999 4.28992 10.6143 4.14623 10.2632C4.00325 9.91495 3.76122 9.61702 3.45055 9.40691C3.13989 9.19679 2.77448 9.08387 2.40026 9.08234Z" fill="white"/>
<path d="M96.9717 14.6664C97.2517 14.5549 97.4859 14.3509 97.6357 14.0877C97.7854 13.8246 97.8419 13.518 97.7959 13.2183C97.7499 12.9186 97.6041 12.6435 97.3824 12.4382C97.1607 12.2329 96.8763 12.1096 96.5759 12.0886C96.5315 12.0178 96.4908 11.947 96.4501 11.8762C96.363 11.7318 96.2276 11.6235 96.0681 11.5709C95.9087 11.5183 95.7359 11.5248 95.5808 11.5894C95.428 11.6568 95.3048 11.7779 95.234 11.93C95.1633 12.0822 95.1498 12.255 95.1961 12.4164C95.2368 12.517 95.2812 12.6138 95.3219 12.7107C95.2494 12.8165 95.1944 12.9335 95.1591 13.0571C95.0664 13.4118 95.1155 13.789 95.296 14.1076C95.4638 14.3861 95.7246 14.5952 96.0317 14.6976C96.3387 14.8 96.672 14.7889 96.9717 14.6664Z" fill="white"/>
</g>
<defs>
<clipPath id="clip0_14701_327">
<rect width="101" height="31.4034" fill="white" transform="translate(0.5 0.298309)"/>
</clipPath>
</defs>
</svg>
